<svg width="63" height="64" viewBox="0 0 63 64" fill="none" xmlns="http://www.w3.org/2000/svg">
<g clip-path="url(#clip0_25_45)">
<path d="M55.996 47.8V39.376H32.672V28.721C36.3636 28.3918 39.7858 26.6511 42.226 23.8615C44.6661 21.072 45.936 17.4486 45.7713 13.746C45.6065 10.0435 44.0197 6.54721 41.3414 3.98544C38.6631 1.42368 35.0997 -0.00610352 31.3935 -0.00610352C27.6873 -0.00610352 24.1239 1.42368 21.4456 3.98544C18.7673 6.54721 17.1805 10.0435 17.0157 13.746C16.851 17.4486 18.1209 21.072 20.561 23.8615C23.0012 26.6511 26.4234 28.3918 30.115 28.721V39.376H6.786V47.8H-0.0039978V63.93H16.126V47.8H9.344V41.933H30.115V47.8H23.328V63.93H39.458V47.8H32.672V41.933H53.443V47.8H46.656V63.93H62.786V47.8H55.996ZM13.573 50.357V61.373H2.557V50.357H13.573ZM36.901 50.357V61.373H25.885V50.357H36.901ZM31.396 26.229C29.0549 26.2296 26.7663 25.5359 24.8195 24.2357C22.8726 22.9355 21.3551 21.0872 20.4588 18.9245C19.5625 16.7618 19.3277 14.3819 19.7841 12.0857C20.2404 9.78959 21.3675 7.68034 23.0226 6.02474C24.6778 4.36915 26.7868 3.24158 29.0828 2.78464C31.3789 2.3277 33.7588 2.56192 35.9217 3.45767C38.0847 4.35342 39.9334 5.87047 41.2341 7.81696C42.5348 9.76344 43.229 12.0519 43.229 14.393C43.2256 17.5305 41.9779 20.5386 39.7596 22.7575C37.5413 24.9763 34.5335 26.2248 31.396 26.229ZM60.229 61.373H49.214V50.357H60.229V61.373Z" fill="url(#paint0_linear_25_45)"/>
</g>
<defs>
<linearGradient id="paint0_linear_25_45" x1="63" y1="32" x2="-2.52158e-06" y2="32" gradientUnits="userSpaceOnUse">
<stop stop-color="#FF963B"/>
<stop offset="0.293269" stop-color="#FF6799"/>
<stop offset="0.596154" stop-color="#FF36FE"/>
<stop offset="1" stop-color="#4A4BFF"/>
</linearGradient>
<clipPath id="clip0_25_45">
<rect width="62.786" height="63.93" fill="white"/>
</clipPath>
</defs>
</svg>
