<svg width="64" height="64" viewBox="0 0 64 64" fill="none" xmlns="http://www.w3.org/2000/svg">
<g clip-path="url(#clip0_25_60)">
<path d="M52.9385 0.00134277C55.8536 0.00146896 58.6495 1.15888 60.7119 3.21912H60.7109C62.7724 5.28092 63.9305 8.07699 63.9307 10.9926C63.9307 13.9083 62.7725 16.7051 60.7109 18.767L15.8164 63.6625L0 63.9301L0.267578 48.1136L45.1641 3.21912C47.2266 1.15877 50.0231 0.00134277 52.9385 0.00134277ZM62.6504 61.3519V63.9076H30.5547V61.3519H62.6504ZM2.80566 49.1898L2.59961 61.3295L14.7402 61.1234L18.4453 57.4183L6.5127 45.4847L2.80566 49.1898ZM8.32031 43.6771L20.252 55.6107L53.5059 22.3568L41.5732 10.4252L8.32031 43.6771ZM25.29 40.4467L23.5244 42.2123L21.7168 40.4047L23.4824 38.639L25.29 40.4467ZM29.9912 35.7484L28.1836 37.5551L26.376 35.7484L28.1836 33.9408L29.9912 35.7484ZM34.6924 31.0482L32.8857 32.8558L31.0781 31.0482L32.8857 29.2406L34.6924 31.0482ZM39.3916 26.348L37.584 28.1556L35.7773 26.348L37.584 24.5404L39.3916 26.348ZM52.9629 2.47107C51.8448 2.47883 50.7394 2.70913 49.7109 3.14783C48.6825 3.58655 47.7511 4.22505 46.9717 5.02673L43.3809 8.61755L55.3096 20.5502L58.9004 16.9603C59.7024 16.1813 60.3411 15.2503 60.7803 14.222C61.2194 13.1938 61.4498 12.0882 61.458 10.9701C61.4662 9.85216 61.252 8.74384 60.8281 7.70935C60.4042 6.67474 59.7787 5.73452 58.9883 4.94373C58.1978 4.15294 57.2581 3.52731 56.2236 3.10291C55.1892 2.67852 54.0809 2.46333 52.9629 2.47107Z" fill="url(#paint0_linear_25_60)"/>
</g>
<defs>
<linearGradient id="paint0_linear_25_60" x1="64" y1="62" x2="-1.23233e-06" y2="62.7113" gradientUnits="userSpaceOnUse">
<stop stop-color="#FF9F4B"/>
<stop offset="0.283654" stop-color="#FF6E9E"/>
<stop offset="0.615385" stop-color="#FF40FE"/>
<stop offset="1" stop-color="#5253FF"/>
</linearGradient>
<clipPath id="clip0_25_60">
<rect width="63.931" height="63.93" fill="white"/>
</clipPath>
</defs>
</svg>
