<svg width="64" height="64" viewBox="0 0 64 64" fill="none" xmlns="http://www.w3.org/2000/svg">
<g clip-path="url(#clip0_25_80)">
<path d="M30.5922 5.30371V33.3379H58.6244V34.6172C58.6244 40.4146 56.9058 46.0819 53.685 50.9023C50.464 55.7229 45.885 59.4806 40.5287 61.6992C35.1727 63.9176 29.2791 64.4972 23.5932 63.3662C17.907 62.2351 12.6838 59.4433 8.58439 55.3438C4.48493 51.2442 1.69286 46.0212 0.561927 40.335C-0.568987 34.6488 0.0111212 28.7546 2.2299 23.3984C4.44868 18.0422 8.20615 13.464 13.0268 10.2432C17.8474 7.02233 23.5153 5.30351 29.3129 5.30371H30.5922ZM28.0336 7.89062C21.054 8.22145 14.4809 11.27 9.71915 16.3838C4.95741 21.4976 2.38511 28.2713 2.55216 35.2568C2.71926 42.2422 5.61205 48.8853 10.6127 53.7656C15.6135 58.646 22.3254 61.3763 29.3129 61.373C36.1851 61.3638 42.7907 58.7134 47.7641 53.9707C52.7375 49.2279 55.6983 42.7548 56.0336 35.8906H28.0336V7.89062ZM34.6176 0C42.3892 0.00873438 49.84 3.10034 55.3354 8.5957C60.8306 14.0911 63.9223 21.5419 63.9311 29.3135V30.5918H33.3383V0H34.6176ZM35.8969 28.0342H61.3442C61.0178 21.3907 58.232 15.1057 53.5287 10.4023C48.8254 5.69902 42.5404 2.91331 35.8969 2.58691V28.0342Z" fill="url(#paint0_linear_25_80)"/>
</g>
<defs>
<linearGradient id="paint0_linear_25_80" x1="64" y1="32" x2="1.66899e-07" y2="32" gradientUnits="userSpaceOnUse">
<stop stop-color="#FF9A42"/>
<stop offset="0.3125" stop-color="#FF79A5"/>
<stop offset="0.572115" stop-color="#FF43FE"/>
<stop offset="1" stop-color="#5E5FFF"/>
</linearGradient>
<clipPath id="clip0_25_80">
<rect width="63.93" height="63.93" fill="white"/>
</clipPath>
</defs>
</svg>
