<svg width="26" height="26" viewBox="0 0 26 26" fill="none" xmlns="http://www.w3.org/2000/svg">
<path d="M8.01758 6.95312C7.66602 6.76432 7.54557 6.48763 7.65625 6.12305C7.76042 5.77799 8.04688 5.47526 8.51562 5.21484C9.04948 4.92187 9.64518 4.77539 10.3027 4.77539C10.9603 4.77539 11.5495 4.94141 12.0703 5.27344C12.5977 5.60547 13.0599 6.07422 13.457 6.67969C14.2773 7.91016 14.7949 9.54753 15.0098 11.5918C15.3613 11.0775 15.7129 10.5566 16.0645 10.0293C16.4225 9.50195 16.7839 8.98763 17.1484 8.48633C17.513 7.98503 17.8809 7.50651 18.252 7.05078C18.6296 6.59505 19.0104 6.17839 19.3945 5.80078C20.2344 4.98698 21.0482 4.43359 21.8359 4.14062C21.8685 4.1276 21.901 4.12109 21.9336 4.12109C21.9727 4.12109 22.0182 4.13086 22.0703 4.15039C22.1224 4.16341 22.181 4.19596 22.2461 4.24805C22.3958 4.36523 22.4902 4.4987 22.5293 4.64844C21.0449 5.64453 19.694 7.40885 18.4766 9.94141C18.125 10.6706 17.7865 11.4095 17.4609 12.1582C17.1354 12.9004 16.8099 13.6393 16.4844 14.375C16.1654 15.1107 15.8333 15.8138 15.4883 16.4844C15.1497 17.1484 14.7884 17.7669 14.4043 18.3398C14.0202 18.9062 13.6003 19.401 13.1445 19.8242C12.1745 20.7161 11.071 21.1621 9.83398 21.1621C8.49935 21.1621 7.42513 20.5404 6.61133 19.2969C6.17513 18.6328 5.89844 18.0404 5.78125 17.5195C5.67057 16.9922 5.61523 16.6536 5.61523 16.5039C5.61523 16.3542 5.64128 16.25 5.69336 16.1914C5.75195 16.1328 5.82031 16.0775 5.89844 16.0254C6.03516 15.9342 6.20117 15.8626 6.39648 15.8105C6.57227 16.1686 6.90104 16.4844 7.38281 16.7578C7.89714 17.0573 8.41146 17.207 8.92578 17.207C9.82422 17.207 10.7585 16.7415 11.7285 15.8105C12.347 14.3717 12.6563 12.7832 12.6563 11.0449C12.6563 9.66471 12.4544 8.5026 12.0508 7.55859C11.556 6.41276 10.8919 5.83984 10.0586 5.83984C9.23177 5.83984 8.55143 6.21094 8.01758 6.95312Z" fill="#FC0048"/>
<rect x="1" y="1" width="24" height="24" stroke="#FC0048" stroke-width="2"/>
</svg>
