<svg width="31" height="32" viewBox="0 0 31 32" fill="none" xmlns="http://www.w3.org/2000/svg">
<path d="M4.43164 5.51562C3.79883 5.17578 3.58203 4.67773 3.78125 4.02148C3.96875 3.40039 4.48438 2.85547 5.32812 2.38672C6.28906 1.85938 7.36133 1.5957 8.54492 1.5957C9.72852 1.5957 10.7891 1.89453 11.7266 2.49219C12.6758 3.08984 13.5078 3.93359 14.2227 5.02344C15.6992 7.23828 16.6309 10.1855 17.0176 13.8652C17.6504 12.9395 18.2832 12.002 18.916 11.0527C19.5605 10.1035 20.2109 9.17773 20.8672 8.27539C21.5234 7.37305 22.1855 6.51172 22.8535 5.69141C23.5332 4.87109 24.2188 4.12109 24.9102 3.44141C26.4219 1.97656 27.8867 0.980469 29.3047 0.453125C29.3633 0.429688 29.4219 0.417969 29.4805 0.417969C29.5508 0.417969 29.6328 0.435547 29.7266 0.470703C29.8203 0.494141 29.9258 0.552734 30.043 0.646484C30.3125 0.857422 30.4824 1.09766 30.5527 1.36719C27.8809 3.16016 25.4492 6.33594 23.2578 10.8945C22.625 12.207 22.0156 13.5371 21.4297 14.8848C20.8438 16.2207 20.2578 17.5508 19.6719 18.875C19.0977 20.1992 18.5 21.4648 17.8789 22.6719C17.2695 23.8672 16.6191 24.9805 15.9277 26.0117C15.2363 27.0312 14.4805 27.9219 13.6602 28.6836C11.9141 30.2891 9.92773 31.0918 7.70117 31.0918C5.29883 31.0918 3.36523 29.9727 1.90039 27.7344C1.11523 26.5391 0.617188 25.4727 0.40625 24.5352C0.207031 23.5859 0.107422 22.9766 0.107422 22.707C0.107422 22.4375 0.154297 22.25 0.248047 22.1445C0.353516 22.0391 0.476562 21.9395 0.617188 21.8457C0.863281 21.6816 1.16211 21.5527 1.51367 21.459C1.83008 22.1035 2.42188 22.6719 3.28906 23.1641C4.21484 23.7031 5.14062 23.9727 6.06641 23.9727C7.68359 23.9727 9.36523 23.1348 11.1113 21.459C12.2246 18.8691 12.7812 16.0098 12.7812 12.8809C12.7812 10.3965 12.418 8.30469 11.6914 6.60547C10.8008 4.54297 9.60547 3.51172 8.10547 3.51172C6.61719 3.51172 5.39258 4.17969 4.43164 5.51562Z" fill="#FC0048"/>
</svg>
